# xmcd
#
# Track frame offsets: 
#        150
#        44402
#        78296
#        93919
#        117756
#        144198
#        169524
#
# Disc length: 2531 seconds
#
# Revision: 7
# Processed by: cddbd v1.5.2PL0 Copyright (c) Steve Scherf et al.
# Submitted via: ExactAudioCopyFreeDBPlugin 1.0
#
DISCID=4909e107
DTITLE=Buddy Guy - Buddy and the Juniors [Reissued 2011]
DYEAR=1970
DGENRE=Blues
TTITLE0=Talkin' 'Bout Women Obviously
TTITLE1=Riffin' aka A Motif Is Just a Riff
TTITLE2=Buddy's Blues
TTITLE3=Hoochie Coochie Man
TTITLE4=Five Long Years
TTITLE5=Rock Me Mama
TTITLE6=Ain't No Need
EXTD=YEAR: 1970
EXTT0=
EXTT1=
EXTT2=
EXTT3=
EXTT4=
EXTT5=
EXTT6=
PLAYORDER=
